<svg xmlns="http://www.w3.org/2000/svg" viewBox="0 0 1443.62 421.31"><defs><style>.cls-1,.cls-3{fill:#006;}.cls-1,.cls-2{fill-rule:evenodd;}.cls-2{fill:gray;}</style></defs><g id="Layer_2" data-name="Layer 2"><g id="Layer_1-2" data-name="Layer 1"><g id="Layer_1-3" data-name="Layer_1"><path class="cls-1" d="M68.15,111c31.25-.93,68.28-4.46,98.65-5.11,9.84-.68,23.91-.59,33.95-1.08l36.31-1.12c30.19.12,61.33-2.19,91.19-2.87,20.53-.38,35.3-1.36,54.69-1.94,11.6-.35,25.11-1,36.51-.93,13.62,0,23.74-1,37.44-1,11.34,0,24.95-.58,36.5-.93,16.73-.5,36.5-2,53.72-2,18.46,0,37.54-2,55.67-1.92,25,.06,48.87-1.93,73.91-1.92,12.58,0,23.07-1,36.47-1,7.54,0,11.72-1,18.21-1s12.82,0,19.23,0c7.29,0,10.87-1,17.24-1,37.51,0,73.55-1.8,111.41-1.85,6.48,0,10.67-1,18.2-1,50.23.11,99.26-1.92,149.74-1.92h74.87c5.2,0,13.29.49,18.14-.09,8-.94,30.53-14.87,38.19-19.41,8.12-4.81,14.95-9.46,22.76-14.67L1224,32.81C1229.55,29,1263.41,5.34,1267,0c-14.31,0-25.13.9-39.38.92-13.72,0-45.37,3.05-58.51,2.92-8.6-.08-59,2.76-67.34,3.7-3.45.38-7,0-10.45.1-4.6.13-4.38.78-8.6,1-3.4.18-7.14-.23-10.51,0l-135.38,8.6c-10.88,0-21.57,1.79-27.82,1.94-14.56.35-33.36,2.07-49,2.85l-58.29,4.11c-8.51,1.15-29,2.38-37.72,2.59-4.63.11-4.37.77-8.62,1l-48.8,3c-42.07,4.6-91.91,5.78-133.71,10.28-12,1.29-23.52,1.27-38.39,2.87s-41.94,2.51-57.3,4.14c-4.76.5-13.45,1.52-18.39,1.76-29.71,1.42-65.14,5.35-95.08,7.62-6.64.51-13.24.41-19.84,1.29-11.23,1.5-25.75,1.85-37,3.31-17.91,2.32-59.27,4-76.11,6.43-6.33.92-12.15,1.09-18.57,1.59-34.73,2.69-99.12,9.11-130.57,13.41-2.1.29-6.14.67-8.34,1.25C64.46,89,66.82,108.83,68.15,111Z"/><path class="cls-1" d="M1.13,370.48c10.05-.23,18.57-3.48,26.7-5.74,8.66-2.42,17.77-5.15,26.13-7.47,9-2.5,16.89-4.91,26-7.56,9.38-2.71,17.5-4.87,26.89-7.67,67.92-20.24,142.44-41.88,210.61-61l78.8-22.94c7.33-2.13,17.22-3.59,21-9.75L337.2,220.74c-7.59,1.74-13,3.71-20.45,5.78l-71.58,20.57c-20.73,5.9-197.6,56.23-202,59.07-6,3.86-27.14,36.95-32.24,44.56C8.09,355,1.1,365.82,0,370.48Z"/><path class="cls-2" d="M69.17,113.59c1.43,5.41,4.7,5.78,11.32,8.44l51.14,20.84c22.82,9.24,46.16,17,69,26.06l139.79,48.86c21,7.89,57.4,20.05,78.12,26.62,0-6,1.94-25,1.88-33.27-.08-10.53,7.95-24.92-24.58-35.85-23.59-7.92-49.58-18.81-74.26-25.56-6.27-1.71-12.62-3.81-19.09-5.87-27.37-8.72-69.35-20.36-97.43-27.34-7.27-1.81-12.66-3.1-20.16-4.8l-12.48-3.22L69.17,113.59Z"/><path class="cls-1" d="M1366.82,238c-13.79,0-21.87-.31-15.58-21.35a165.9,165.9,0,0,1,10.14-25.37c8.74-17.34,14.44-33.91,39-33.91,21.56,0,12.51,20.64,6.86,34.69-7.6,18.91-18.66,45.94-40.45,45.94Zm28.9-2.51-18.24,8.64,5.85,13.23,17.28-9.6Zm47.9-76.19v4.17c-.81,15.26-9.95,33.63-15.23,46.83-1.88,4.69-3.36,6.35-5.58,10.74-8.18,16.22-17.76,22-21.44,27.52,1.48,2.8,6.72,13.79,6.72,17.27,0,1.13-13.91,9.32-17.28,9.6l-7.67-18.24c-6.9.58-11.75,2.88-20.16,2.88-11.85,0-22.21.53-32.6-4.83-10.79-5.57-10.59-13.64-10.59-23,0-18.82,17.75-54.65,25.9-66.24,6.39-9.08,13.13-17.06,23.67-22.4,10.31-5.23,21.74-8.3,36.81-8.3,27.54,0,36.66,10.29,37.45,24Z"/><path class="cls-1" d="M1218,238c-8.42,0-19.19,1.31-19.19-9.6,0-12.3,14.68-44.12,21.09-53.77,7.1-10.68,12.39-17.26,29.78-17.26,6.58,0,14.4,2.57,14.4,8.64,0,13.3-10.14,33.7-15,43.51C1243.19,221.34,1234.4,238,1218,238Zm-49-1.92c0,23.16,24.52,24,42.23,24,27.56,0,45.78-12.79,57.91-33.28,2.07-3.51,3.56-6.33,5.63-9.72,6.76-11.11,18.94-41.64,18.35-57.4-1.27-34.14-58.32-25.55-75.14-15.71-9.88,5.78-17,13.88-23.45,23.58C1185.39,181.44,1169.09,214.28,1169.09,236.12Z"/><path class="cls-1" d="M1006.88,258.19h27.83c1-4.26,8.64-21.5,10.89-26.54,1.94-4.35,10.44-24,11.19-27.21H1099c-2,3.78-3.63,8.41-5.49,12.75-2,4.72-3.59,8.76-5.7,13.5-2.29,5.13-10.52,23.15-10.89,27.5h26.88c.68-2.9,1.81-4.63,3-7.54,1.05-2.52,1.87-4.32,3.16-7.4,2.17-5.19,4.17-10,6.28-14.84l25.53-59.89c2.27-5.42,4.22-9.57,6.32-14.8,1.87-4.67,4.23-11.08,6.57-15.51h-27.83c-.86,3.68-2.87,7.35-4.39,11-1.8,4.3-3,7.26-4.88,11.44s-8.68,19.24-9,22.71h-42.23c1.49-6.41,17.81-40,18.23-45.12h-26.87c-2.43,4.6-4.23,9.48-6.46,14.67s-4,9.51-6.35,14.76l-25.45,60c-2.5,6.06-11.55,26-12.61,30.57Z"/><path class="cls-1" d="M506.8,182.37c0,6.38.17,9.16,4.4,13.83a10.49,10.49,0,0,0,1.42,1.46C521.58,206,549,213,549,217.88c0,4.28-3.46,11.65-7.28,14.79-9.28,7.63-43.68,3.45-58,3.45l-7.58,16.65c-1.13,3.27-1.47,2.74,2.51,3.67,21.95,5.13,67.62,8,83.07-9.52,9.28-10.52,16.06-24.23,16.06-40.56,0-9-11.55-14-18.5-17-4.23-1.81-23.73-9.24-23.73-12.74,0-5.26,3.38-11.23,6-14.17,3.43-3.86,9-4.13,16.08-4.08,13.43.08,26.88,0,40.32,0,1.73-3.26,7.15-15.88,7.95-19.32-7.89-2.29-13.64-2.36-38.66-3.71-16.07,0-34.31,3.22-42.51,11.24-5.35,5.24-8,8.14-11.57,15.3C510.4,167.52,506.8,174.49,506.8,182.37Z"/><path class="cls-1" d="M751.56,241.88c0,9.54,7.69,16.31,17.27,16.31h34.56c9.33,0,14.8-1,24-1,2.68-5.58,3.9-14.26,6.72-20.15H806.27c-26.18,0-31.12,5.18-13.44-31.68h48.95c.55-6.58,6.17-12.61,6.72-19.19h-47c1.3-5.58,4.58-11.51,6.58-16.47,2.44-6.07,4.27-10.33,12.56-10.47,15.23-.26,30.84.06,46.13.06,1.94-3.66,8.29-15.94,8.64-20.16-4.77,0-4.73-.85-9.57-1-3.79-.11-7.64.32-11.41-.11-11.86-1.33-41.19-2.57-52,3a35.19,35.19,0,0,0-12.24,9.84c-7.38,9-21.37,46.2-27.1,59.29-2.57,5.86-11.49,25-11.49,31.7Z"/><path class="cls-1" d="M918.57,260.11c19.39,0,25.83-.53,44.15-4.8.59-7.08,3.84-13,3.84-20.15-5,0-5.25.73-9.59,1-3.73.2-7.8-.14-11.55,0-22.94.69-38.91,5.13-25.35-28.21,21.63-53.18,25-48.54,67.61-48.54,5.33,0,5.69,1,10.56,1,1.42-6.09,7.06-13.38,8.64-20.16-10.55-5.06-33.9-4.71-47-3.77-25.44,1.82-40.44,16.4-52.69,36.58a186.27,186.27,0,0,0-20.56,50.47c-5.75,24.84,7.06,36.7,31.91,36.7Z"/><path class="cls-1" d="M676.69,160.29c-1,4.35-3.11,8.53-4.83,12.45-4.31,9.84-35,80-35.48,85.45h26.87c5.17-10.76,14.91-36.15,20.49-48.62l20.79-49.28H741c3.63-6.86,6-15.27,9.6-22.08H649.81c-1.15,4.94-4.83,12.2-7,17.19-1.37,3.21-2.52,3.76.37,4.69,2.2.7,28.88.2,33.48.2Z"/><g id="_105553314141088" data-name=" 105553314141088"><path class="cls-3" d="M281.73,374a11.66,11.66,0,0,1-.49,3.43,11.33,11.33,0,0,1-1.37,3,10.85,10.85,0,0,1-2.18,2.41,12.14,12.14,0,0,1-2.88,1.72,7.09,7.09,0,0,1,2.31.86A6.58,6.58,0,0,1,279,387a7,7,0,0,1,1.19,2.21,9,9,0,0,1,.43,2.81,12.63,12.63,0,0,1-.42,3.15,12,12,0,0,1-1.25,3,13.2,13.2,0,0,1-5,4.81,15.21,15.21,0,0,1-3.77,1.43,20.91,20.91,0,0,1-4.83.5H255.09a2,2,0,0,1-1.47-.49,1.61,1.61,0,0,1-.22-1.58l6.79-34.2a2.3,2.3,0,0,1,.95-1.62,3,3,0,0,1,1.55-.45H271a21,21,0,0,1,4.88.48,9.63,9.63,0,0,1,3.28,1.44,6,6,0,0,1,2,2.35,7.36,7.36,0,0,1,.65,3.19Zm-5.4.92a4.62,4.62,0,0,0-.32-1.75,3.37,3.37,0,0,0-1.06-1.33,5.36,5.36,0,0,0-1.83-.86,11,11,0,0,0-2.92-.32h-5.38l-2.42,12.44h5.75a8.3,8.3,0,0,0,3.84-.77,7.56,7.56,0,0,0,2.47-2,8,8,0,0,0,1.41-2.65A9.15,9.15,0,0,0,276.33,374.94Zm-1.15,17.41a4.55,4.55,0,0,0-1.74-3.82c-1.17-.9-3-1.34-5.38-1.34h-6.52l-2.69,13.52H266a10.73,10.73,0,0,0,4.09-.69,8.74,8.74,0,0,0,2.8-1.84,7.74,7.74,0,0,0,1.71-2.65,8.6,8.6,0,0,0,.6-3.18Zm51.15-24.81c0,.1,0,.25,0,.45a4,4,0,0,1-.09.67q-.08.36-.18.75a3.64,3.64,0,0,1-.27.7,1.8,1.8,0,0,1-.44.5.84.84,0,0,1-.54.2H309.87l-2.42,12h12.84a.61.61,0,0,1,.52.23,1.19,1.19,0,0,1,.18.72,3.15,3.15,0,0,1,0,.45c0,.22-.07.44-.11.69a3.85,3.85,0,0,1-.17.73,4.12,4.12,0,0,1-.28.64,1.7,1.7,0,0,1-.41.47.78.78,0,0,1-.52.19H306.62l-2.78,13.71H319.1a.6.6,0,0,1,.49.24,1.17,1.17,0,0,1,.19.74c0,.13,0,.29,0,.51a5.88,5.88,0,0,1-.1.68c0,.24-.11.48-.17.73a2.58,2.58,0,0,1-.29.68,1.43,1.43,0,0,1-.41.49.93.93,0,0,1-.55.18H299.79a2,2,0,0,1-.64-.1,1.26,1.26,0,0,1-.53-.35,1.7,1.7,0,0,1-.32-.66,1.93,1.93,0,0,1,.07-1l6.85-34.2a2.31,2.31,0,0,1,.92-1.62,2.68,2.68,0,0,1,1.41-.45h18.1c.46,0,.68.32.68,1Zm42.38,7a13,13,0,0,1-.57,3.87,11.1,11.1,0,0,1-1.75,3.38,12.28,12.28,0,0,1-2.94,2.74,15.79,15.79,0,0,1-4.11,1.94,4.72,4.72,0,0,1,2.54,2.37,16.36,16.36,0,0,1,1.49,4.78l1.58,8.48c.06.37.12.72.17,1.05a5.83,5.83,0,0,1,.07.87.73.73,0,0,1-.15.46,1,1,0,0,1-.47.32,4.66,4.66,0,0,1-.9.17,14.18,14.18,0,0,1-1.42.06A10,10,0,0,1,361,405a2.09,2.09,0,0,1-.73-.2.83.83,0,0,1-.35-.37,3.06,3.06,0,0,1-.17-.61l-1.52-9a15.79,15.79,0,0,0-.67-2.84,6.85,6.85,0,0,0-1.19-2.22,5.35,5.35,0,0,0-2-1.45,7.35,7.35,0,0,0-2.93-.52h-3.41l-3.27,16.37a1.15,1.15,0,0,1-.21.39,1,1,0,0,1-.48.28,4.83,4.83,0,0,1-.83.18,8.66,8.66,0,0,1-1.24.07,9.58,9.58,0,0,1-1.16-.06,3.29,3.29,0,0,1-.76-.16.72.72,0,0,1-.38-.28.6.6,0,0,1,0-.42l7.1-35.53a2.45,2.45,0,0,1,.95-1.62,2.91,2.91,0,0,1,1.58-.45h8.34a19,19,0,0,1,4.79.54,10,10,0,0,1,3.45,1.54,6.56,6.56,0,0,1,2.09,2.52,8,8,0,0,1,.7,3.43Zm-5.52.78a5,5,0,0,0-.35-1.87,3.91,3.91,0,0,0-1.11-1.48,5.25,5.25,0,0,0-2-.95,11.81,11.81,0,0,0-2.92-.33H351.5l-2.59,12.93h4.5a12.63,12.63,0,0,0,4.49-.71,8.47,8.47,0,0,0,3-1.89,7.35,7.35,0,0,0,1.72-2.65,8.83,8.83,0,0,0,.54-3.05Zm53.05-8a1.5,1.5,0,0,1-.31.83,8.27,8.27,0,0,1-1,1.06L399,384.78l10.09,17.88a7,7,0,0,1,.37.8,2.31,2.31,0,0,1,.11.55,1,1,0,0,1-.13.48.79.79,0,0,1-.4.33,4.05,4.05,0,0,1-.81.19,9.93,9.93,0,0,1-1.34.07,11.8,11.8,0,0,1-1.33-.06,4.09,4.09,0,0,1-.82-.16,1.08,1.08,0,0,1-.47-.29,2.65,2.65,0,0,1-.28-.47L393.51,385l-3.79,19.17a.69.69,0,0,1-.2.42,1.09,1.09,0,0,1-.49.28,5.05,5.05,0,0,1-.83.18,8.39,8.39,0,0,1-1.21.07,8.51,8.51,0,0,1-1.23-.07,4.07,4.07,0,0,1-.76-.18.64.64,0,0,1-.35-.28.59.59,0,0,1,0-.42L392,367.3a.66.66,0,0,1,.21-.39,1.24,1.24,0,0,1,.51-.28,5.3,5.3,0,0,1,.83-.18,8.39,8.39,0,0,1,1.21-.07,8.3,8.3,0,0,1,1.21.07,3.47,3.47,0,0,1,.74.18.6.6,0,0,1,.36.28.64.64,0,0,1,.06.39l-3.41,17.07,16.78-17a3.74,3.74,0,0,1,.52-.47,2.57,2.57,0,0,1,.65-.29,5.68,5.68,0,0,1,.9-.16,11.31,11.31,0,0,1,1.24-.06,8.35,8.35,0,0,1,1.25.07,3.38,3.38,0,0,1,.74.19.75.75,0,0,1,.38.3.79.79,0,0,1,.1.42ZM457,403.1a4.43,4.43,0,0,1,.05,1,.85.85,0,0,1-.33.61,1.87,1.87,0,0,1-.87.26c-.4,0-.93.06-1.6.06-.43,0-.81,0-1.13,0a2.47,2.47,0,0,1-.72-.15.78.78,0,0,1-.37-.28.9.9,0,0,1-.16-.45l-1.39-9.33h-16l-5,9.24a1.86,1.86,0,0,1-.35.5,1.27,1.27,0,0,1-.53.3,3.6,3.6,0,0,1-.89.17c-.38,0-.83,0-1.37,0A10.52,10.52,0,0,1,425,405a1.28,1.28,0,0,1-.73-.28.62.62,0,0,1-.12-.61,5.12,5.12,0,0,1,.41-1.05l19.94-35.62a2.52,2.52,0,0,1,.45-.54,1.52,1.52,0,0,1,.62-.32,4.47,4.47,0,0,1,1-.17c.39,0,.87,0,1.44,0s1.18,0,1.59,0a4.17,4.17,0,0,1,1,.17,1,1,0,0,1,.53.33,1.7,1.7,0,0,1,.2.55L457,403.1Zm-10-31.45h0l-10.3,19.11h13.18Zm57.14,2.94a13,13,0,0,1-.57,3.87,11.1,11.1,0,0,1-1.75,3.38,12.28,12.28,0,0,1-2.94,2.74,15.79,15.79,0,0,1-4.11,1.94,4.72,4.72,0,0,1,2.54,2.37,16.06,16.06,0,0,1,1.49,4.78l1.58,8.48c.06.37.12.72.17,1.05a5.83,5.83,0,0,1,.07.87.73.73,0,0,1-.15.46,1,1,0,0,1-.47.32,4.66,4.66,0,0,1-.9.17,14.18,14.18,0,0,1-1.42.06,10.15,10.15,0,0,1-1.23-.06,2.09,2.09,0,0,1-.73-.2.83.83,0,0,1-.35-.37,2.51,2.51,0,0,1-.17-.61l-1.52-9A15.79,15.79,0,0,0,493,392a6.85,6.85,0,0,0-1.19-2.22,5.35,5.35,0,0,0-2-1.45,7.31,7.31,0,0,0-2.93-.52h-3.4l-3.28,16.37a1.15,1.15,0,0,1-.21.39,1,1,0,0,1-.48.28,4.83,4.83,0,0,1-.83.18,8.56,8.56,0,0,1-1.24.07,9.58,9.58,0,0,1-1.16-.06,3.29,3.29,0,0,1-.76-.16.69.69,0,0,1-.37-.28.55.55,0,0,1-.05-.42l7.1-35.53a2.45,2.45,0,0,1,1-1.62,2.91,2.91,0,0,1,1.58-.45h8.34a19,19,0,0,1,4.79.54,10,10,0,0,1,3.45,1.54,6.56,6.56,0,0,1,2.09,2.52,8,8,0,0,1,.7,3.43Zm-5.52.78a5,5,0,0,0-.35-1.87,3.91,3.91,0,0,0-1.11-1.48,5.25,5.25,0,0,0-2-.95,11.81,11.81,0,0,0-2.92-.33H487l-2.58,12.93h4.5a12.61,12.61,0,0,0,4.48-.71,8.47,8.47,0,0,0,3-1.89,7.35,7.35,0,0,0,1.72-2.65,8.83,8.83,0,0,0,.54-3.05ZM533.87,390l-2.81,14.16a1,1,0,0,1-.22.39,1.09,1.09,0,0,1-.49.28,5.3,5.3,0,0,1-.83.18,8.24,8.24,0,0,1-1.2.07,8.09,8.09,0,0,1-1.22-.07,3.58,3.58,0,0,1-.75-.18.64.64,0,0,1-.35-.28.59.59,0,0,1-.07-.39L528.78,390l-6.48-21.64a6.48,6.48,0,0,1-.23-1,.63.63,0,0,1,.2-.6,1.46,1.46,0,0,1,.77-.28,12.72,12.72,0,0,1,1.58-.07c.53,0,1,0,1.29,0a2.47,2.47,0,0,1,.8.19,1,1,0,0,1,.43.37,3,3,0,0,1,.25.61l3.05,10.53c.36,1.22.67,2.4.94,3.54s.55,2.31.8,3.53h.06c.71-1.18,1.43-2.35,2.17-3.53s1.5-2.33,2.3-3.51l7.24-10.7a2.13,2.13,0,0,1,.41-.51,1.71,1.71,0,0,1,.58-.34,3.4,3.4,0,0,1,.9-.18c.36,0,.84,0,1.44,0a9.75,9.75,0,0,1,1.63.1,1.13,1.13,0,0,1,.72.34.64.64,0,0,1,0,.63,8.78,8.78,0,0,1-.57.91L533.87,390Zm51,13.1a4.43,4.43,0,0,1,0,1,.82.82,0,0,1-.34.61,1.83,1.83,0,0,1-.87.26c-.39,0-.93.06-1.59.06-.44,0-.81,0-1.13,0a2.47,2.47,0,0,1-.72-.15.81.81,0,0,1-.38-.28,1,1,0,0,1-.15-.45l-1.39-9.33h-16l-5,9.24a2.45,2.45,0,0,1-.35.5,1.25,1.25,0,0,1-.54.3,3.51,3.51,0,0,1-.88.17c-.38,0-.83,0-1.37,0a10.42,10.42,0,0,1-1.4-.07,1.25,1.25,0,0,1-.73-.28.62.62,0,0,1-.13-.61,6,6,0,0,1,.42-1.05l19.94-35.62a2.5,2.5,0,0,1,.44-.54,1.63,1.63,0,0,1,.63-.32,4.37,4.37,0,0,1,1-.17c.4,0,.88,0,1.45,0s1.18,0,1.59,0a4.27,4.27,0,0,1,1,.17.92.92,0,0,1,.52.33,1.7,1.7,0,0,1,.2.55l5.75,35.63Zm-10-31.45h0l-10.31,19.11h13.19l-2.85-19.11Zm73.31,19.29a21.12,21.12,0,0,1-2.26,6.33,15.28,15.28,0,0,1-8.77,7.26,19.34,19.34,0,0,1-6.06.92,17.57,17.57,0,0,1-6-.93,9.34,9.34,0,0,1-4.06-2.8,9.66,9.66,0,0,1-2-4.59,17.3,17.3,0,0,1,.26-6.41L624,367.33a.71.71,0,0,1,.19-.42,1.19,1.19,0,0,1,.5-.28,4.91,4.91,0,0,1,.82-.18,8.42,8.42,0,0,1,1.23-.07,7.89,7.89,0,0,1,1.2.07,4.07,4.07,0,0,1,.76.18.57.57,0,0,1,.36.28.66.66,0,0,1,0,.42l-4.64,23.33a15.42,15.42,0,0,0-.29,4.56,7,7,0,0,0,1.15,3.26,5.53,5.53,0,0,0,2.53,1.95,10.21,10.21,0,0,0,3.87.65,12.14,12.14,0,0,0,4.11-.68,10.09,10.09,0,0,0,3.35-2,11.66,11.66,0,0,0,2.5-3.26,16.42,16.42,0,0,0,1.52-4.42l4.67-23.39a.67.67,0,0,1,.2-.42,1.07,1.07,0,0,1,.47-.28,4.7,4.7,0,0,1,.79-.18,8.36,8.36,0,0,1,1.22-.07,8.06,8.06,0,0,1,1.2.07,3.75,3.75,0,0,1,.75.18.62.62,0,0,1,.38.28.71.71,0,0,1,.06.42l-4.73,23.61Zm48.58,11.86a2.63,2.63,0,0,1-.35,1,2.82,2.82,0,0,1-.61.67,2.5,2.5,0,0,1-.72.38,3,3,0,0,1-.77.11h-1.93a4.46,4.46,0,0,1-1.3-.17,2.28,2.28,0,0,1-.94-.61,4.17,4.17,0,0,1-.71-1.11c-.21-.46-.43-1-.66-1.72l-7.2-20.44c-.5-1.47-1-2.93-1.47-4.38s-1-2.91-1.4-4.37h-.08c-.26,1.62-.53,3.23-.82,4.83s-.61,3.2-.92,4.8l-4.44,22.34a.85.85,0,0,1-.22.42,1.13,1.13,0,0,1-.47.28,5.1,5.1,0,0,1-.8.18,8,8,0,0,1-1.17.07,7.44,7.44,0,0,1-1.15-.07,3.05,3.05,0,0,1-.69-.18.54.54,0,0,1-.31-.28.66.66,0,0,1,0-.42l7-35.38a2.5,2.5,0,0,1,1-1.68,2.72,2.72,0,0,1,1.54-.51h2.34a4.6,4.6,0,0,1,1.23.15,1.94,1.94,0,0,1,.92.53,3.89,3.89,0,0,1,.68,1c.2.4.41.92.65,1.54l7.26,20.72c.46,1.29.91,2.57,1.36,3.85s.88,2.58,1.31,3.89H693q.42-2.43.9-5c.34-1.74.66-3.42,1-5l4.2-20.78a.85.85,0,0,1,.2-.39,1,1,0,0,1,.44-.27,2.7,2.7,0,0,1,.74-.17,9.42,9.42,0,0,1,1.17-.06,9.29,9.29,0,0,1,1.15.06,2.24,2.24,0,0,1,.72.17.64.64,0,0,1,.34.27.61.61,0,0,1,.06.39l-7.13,35.41ZM750,367.59c0,.12,0,.28,0,.49a4,4,0,0,1-.09.66c-.05.24-.11.49-.19.75a2.64,2.64,0,0,1-.3.7,1.81,1.81,0,0,1-.43.48.8.8,0,0,1-.55.2h-10.8l-6.65,33.26a1,1,0,0,1-.22.42,1.11,1.11,0,0,1-.48.28,4.91,4.91,0,0,1-.82.18,8.81,8.81,0,0,1-1.25.07A8,8,0,0,1,727,405a3.51,3.51,0,0,1-.73-.18.54.54,0,0,1-.38-.7l6.61-33.26h-10.7a.56.56,0,0,1-.55-.27,1.4,1.4,0,0,1-.16-.74,3.44,3.44,0,0,1,0-.51c0-.21.08-.45.13-.7a6.7,6.7,0,0,1,.19-.74,2.93,2.93,0,0,1,.29-.65,1.74,1.74,0,0,1,.38-.51.8.8,0,0,1,.52-.19h26.68a.55.55,0,0,1,.54.28,1.59,1.59,0,0,1,.14.75Zm41.71,23.35a20.84,20.84,0,0,1-2.25,6.33,15.26,15.26,0,0,1-8.78,7.26,19.3,19.3,0,0,1-6.06.92,17.55,17.55,0,0,1-6-.93,9.44,9.44,0,0,1-4.07-2.8,9.76,9.76,0,0,1-2-4.59,17.32,17.32,0,0,1,.27-6.41l4.67-23.39a.71.71,0,0,1,.19-.42,1.09,1.09,0,0,1,.49-.28,5.41,5.41,0,0,1,.82-.18,8.56,8.56,0,0,1,1.24-.07,8,8,0,0,1,1.2.07,4.27,4.27,0,0,1,.76.18.57.57,0,0,1,.35.28.66.66,0,0,1,0,.42l-4.64,23.33a15.73,15.73,0,0,0-.28,4.56,7.1,7.1,0,0,0,1.14,3.26,5.62,5.62,0,0,0,2.54,1.95,10.16,10.16,0,0,0,3.86.65,12.2,12.2,0,0,0,4.12-.68,10,10,0,0,0,3.34-2,11.66,11.66,0,0,0,2.5-3.26,16.42,16.42,0,0,0,1.53-4.42l4.67-23.39a.71.71,0,0,1,.19-.42,1.05,1.05,0,0,1,.48-.28,4.55,4.55,0,0,1,.78-.18,8.51,8.51,0,0,1,1.23-.07,7.92,7.92,0,0,1,1.19.07,3.88,3.88,0,0,1,.76.18.62.62,0,0,1,.37.28.71.71,0,0,1,.06.42l-4.73,23.61Zm51.06-23.58a1.59,1.59,0,0,1-.31.83,8.27,8.27,0,0,1-1,1.06l-15.92,15.53,10.09,17.88a5.36,5.36,0,0,1,.36.8,1.9,1.9,0,0,1,.11.55,1,1,0,0,1-.12.48.79.79,0,0,1-.4.33,4.05,4.05,0,0,1-.81.19,10,10,0,0,1-1.35.07,11.73,11.73,0,0,1-1.32-.06,4.09,4.09,0,0,1-.82-.16,1.08,1.08,0,0,1-.47-.29,2.16,2.16,0,0,1-.28-.47L820,385l-3.79,19.17a.75.75,0,0,1-.2.42,1.09,1.09,0,0,1-.49.28,5.05,5.05,0,0,1-.83.18,10.67,10.67,0,0,1-2.44,0,4.07,4.07,0,0,1-.76-.18.64.64,0,0,1-.35-.28.59.59,0,0,1,0-.42l7.34-36.83a.66.66,0,0,1,.21-.39,1.17,1.17,0,0,1,.51-.28,5.05,5.05,0,0,1,.83-.18,8.39,8.39,0,0,1,1.21-.07,8.06,8.06,0,0,1,1.2.07,3.43,3.43,0,0,1,.75.18.66.66,0,0,1,.36.28.64.64,0,0,1,.06.39l-3.41,17.07,16.78-17a3.25,3.25,0,0,1,.52-.47,2.42,2.42,0,0,1,.65-.29,5.68,5.68,0,0,1,.9-.16,11.18,11.18,0,0,1,1.24-.06,8.35,8.35,0,0,1,1.25.07,3.38,3.38,0,0,1,.74.19.72.72,0,0,1,.37.3.71.71,0,0,1,.11.42ZM896.88,374a12,12,0,0,1-.49,3.43,11.33,11.33,0,0,1-1.37,3,10.85,10.85,0,0,1-2.18,2.41,12.14,12.14,0,0,1-2.88,1.72,7.09,7.09,0,0,1,2.31.86,6.72,6.72,0,0,1,1.84,1.55,7,7,0,0,1,1.19,2.21,9,9,0,0,1,.42,2.81,12.61,12.61,0,0,1-.41,3.15,12,12,0,0,1-1.25,3,12.66,12.66,0,0,1-2.11,2.66A13,13,0,0,1,889,403a15.36,15.36,0,0,1-3.77,1.43,21,21,0,0,1-4.83.5H870.23a2,2,0,0,1-1.46-.49,1.56,1.56,0,0,1-.22-1.58l6.79-34.2a2.27,2.27,0,0,1,.95-1.62,3,3,0,0,1,1.55-.45h8.27A21,21,0,0,1,891,367a9.63,9.63,0,0,1,3.28,1.44,6.06,6.06,0,0,1,2,2.35,7.51,7.51,0,0,1,.65,3.19Zm-5.4.92a4.44,4.44,0,0,0-.33-1.75,3.26,3.26,0,0,0-1-1.33,5.36,5.36,0,0,0-1.83-.86,11.08,11.08,0,0,0-2.92-.32H880l-2.43,12.44h5.76a8.33,8.33,0,0,0,3.84-.77,7.56,7.56,0,0,0,2.47-2,8.16,8.16,0,0,0,1.41-2.65,9.15,9.15,0,0,0,.46-2.79Zm-1.16,17.41a4.54,4.54,0,0,0-1.73-3.82c-1.17-.9-3-1.34-5.38-1.34h-6.53L874,400.71h7.12a10.74,10.74,0,0,0,4.1-.69,8.74,8.74,0,0,0,2.8-1.84,7.9,7.9,0,0,0,1.71-2.65,8.79,8.79,0,0,0,.59-3.18Zm51.2,10.75a4.43,4.43,0,0,1,.05,1,.85.85,0,0,1-.33.61,1.91,1.91,0,0,1-.87.26c-.4,0-.93.06-1.6.06-.43,0-.81,0-1.13,0a2.47,2.47,0,0,1-.72-.15.78.78,0,0,1-.37-.28.9.9,0,0,1-.16-.45L935,394.83H919l-5,9.24a2.09,2.09,0,0,1-.34.5,1.39,1.39,0,0,1-.54.3,3.6,3.6,0,0,1-.89.17c-.37,0-.83,0-1.37,0a10.52,10.52,0,0,1-1.4-.07,1.28,1.28,0,0,1-.73-.28.62.62,0,0,1-.12-.61,5.12,5.12,0,0,1,.41-1.05L929,367.45a2.52,2.52,0,0,1,.45-.54,1.52,1.52,0,0,1,.62-.32,4.47,4.47,0,0,1,1-.17c.39,0,.88,0,1.44,0s1.18,0,1.59,0a4.17,4.17,0,0,1,1,.17,1,1,0,0,1,.53.33,1.7,1.7,0,0,1,.2.55l5.74,35.63Zm-10-31.45h0l-10.3,19.11h13.18Z"/><path class="cls-3" d="M988.83,402.8a2.63,2.63,0,0,1-.35,1,2.82,2.82,0,0,1-.61.67,2.5,2.5,0,0,1-.72.38,3,3,0,0,1-.77.11h-1.93a4.46,4.46,0,0,1-1.3-.17,2.28,2.28,0,0,1-.94-.61,4.17,4.17,0,0,1-.71-1.11c-.21-.46-.43-1-.66-1.72l-7.2-20.44c-.5-1.47-1-2.93-1.47-4.38s-.95-2.91-1.4-4.37h-.08c-.26,1.62-.53,3.23-.82,4.83s-.61,3.2-.92,4.8l-4.44,22.34a.85.85,0,0,1-.22.42,1.13,1.13,0,0,1-.47.28,5.1,5.1,0,0,1-.8.18,8,8,0,0,1-1.17.07,7.44,7.44,0,0,1-1.15-.07,3.05,3.05,0,0,1-.69-.18.54.54,0,0,1-.31-.28.66.66,0,0,1,0-.42l7-35.38a2.5,2.5,0,0,1,1-1.68,2.72,2.72,0,0,1,1.54-.51h2.34a4.6,4.6,0,0,1,1.23.15,1.94,1.94,0,0,1,.92.53,3.89,3.89,0,0,1,.68,1c.2.4.41.92.65,1.54l7.26,20.72c.46,1.29.91,2.57,1.36,3.85s.88,2.58,1.31,3.89h.06q.42-2.43.9-5c.34-1.74.66-3.42,1-5l4.2-20.78a.85.85,0,0,1,.2-.39,1,1,0,0,1,.44-.27,2.69,2.69,0,0,1,.75-.17,9.13,9.13,0,0,1,1.16-.06,9.29,9.29,0,0,1,1.15.06,2.24,2.24,0,0,1,.72.17.64.64,0,0,1,.34.27.61.61,0,0,1,.06.39l-7.13,35.41Zm57.35-32.06c0,.13,0,.29-.07.5a6.54,6.54,0,0,1-.13.67,4.84,4.84,0,0,1-.19.72,4,4,0,0,1-.26.65,1.7,1.7,0,0,1-.33.46.53.53,0,0,1-.39.16,2.38,2.38,0,0,1-1.2-.54,22.36,22.36,0,0,0-2-1.21,17.23,17.23,0,0,0-3.07-1.21,14.4,14.4,0,0,0-4.31-.56,15,15,0,0,0-4.94.79,15.47,15.47,0,0,0-4.2,2.16,17.12,17.12,0,0,0-3.44,3.26,21.21,21.21,0,0,0-2.56,4.08,22.17,22.17,0,0,0-2.14,9.56,13.11,13.11,0,0,0,.75,4.61,9,9,0,0,0,2.17,3.36,9.34,9.34,0,0,0,3.43,2.06,13.8,13.8,0,0,0,4.5.7,18.56,18.56,0,0,0,3.82-.43,15,15,0,0,0,3.71-1.31l2.24-11.12h-8.84a.65.65,0,0,1-.55-.26,1.18,1.18,0,0,1-.19-.73,4,4,0,0,1,0-.54c0-.23.07-.47.12-.7a7.1,7.1,0,0,1,.2-.72,3.1,3.1,0,0,1,.32-.63,1.44,1.44,0,0,1,.39-.45.79.79,0,0,1,.48-.16h12.19a1.3,1.3,0,0,1,1.19.58,1.93,1.93,0,0,1,.18,1.52l-3,14.74a3,3,0,0,1-.31.91,4.12,4.12,0,0,1-.43.61,5.45,5.45,0,0,1-1.35.79,22.71,22.71,0,0,1-2.72,1.05,30,30,0,0,1-3.71.93,21.59,21.59,0,0,1-4.31.41,21.07,21.07,0,0,1-6.77-1,12.91,12.91,0,0,1-4.92-2.89,12.54,12.54,0,0,1-3-4.6,16.93,16.93,0,0,1-1-6.1,26.62,26.62,0,0,1,.73-6.24,26.94,26.94,0,0,1,2.08-5.83,24.37,24.37,0,0,1,3.37-5.1,21.24,21.24,0,0,1,4.58-4A22.75,22.75,0,0,1,1028,367a22.37,22.37,0,0,1,6.72-1,18.31,18.31,0,0,1,3.88.38,21.17,21.17,0,0,1,3.24.89,11.8,11.8,0,0,1,2.41,1.14,10.27,10.27,0,0,1,1.33,1,1.79,1.79,0,0,1,.48.62,2,2,0,0,1,.12.74Zm39.62-1.26c0,.16,0,.34,0,.55a4,4,0,0,1-.11.65,6.72,6.72,0,0,1-.18.71,3.13,3.13,0,0,1-.26.66,1.44,1.44,0,0,1-.34.45.61.61,0,0,1-.44.19,1.92,1.92,0,0,1-.9-.4,15,15,0,0,0-1.48-.82,16,16,0,0,0-2.15-.82,9.58,9.58,0,0,0-2.87-.39,8.37,8.37,0,0,0-3.16.55,6.43,6.43,0,0,0-2.27,1.48,6.28,6.28,0,0,0-1.37,2.12,6.69,6.69,0,0,0-.46,2.47,4.37,4.37,0,0,0,.58,2.28,7.56,7.56,0,0,0,1.5,1.78,16.44,16.44,0,0,0,2.14,1.5l2.44,1.45q1.24.75,2.46,1.59a10.75,10.75,0,0,1,2.14,1.95,9.39,9.39,0,0,1,1.51,2.55,9,9,0,0,1,.58,3.33,11,11,0,0,1-1,4.72,11.34,11.34,0,0,1-2.95,3.85,14.44,14.44,0,0,1-4.61,2.61,18.08,18.08,0,0,1-6,1,16.92,16.92,0,0,1-3.37-.32,16.66,16.66,0,0,1-2.8-.77,13.73,13.73,0,0,1-2.11-.94,6.11,6.11,0,0,1-1.24-.87,1.52,1.52,0,0,1-.38-1.12,3.62,3.62,0,0,1,0-.49c0-.23.08-.46.13-.71s.13-.51.19-.76a4,4,0,0,1,.27-.68,2.15,2.15,0,0,1,.36-.49.58.58,0,0,1,.45-.19,2.37,2.37,0,0,1,1.19.47,18.21,18.21,0,0,0,1.77,1,14.93,14.93,0,0,0,2.49,1,12.25,12.25,0,0,0,7.12-.1,8,8,0,0,0,2.74-1.58,6.58,6.58,0,0,0,1.7-2.32,7,7,0,0,0,.6-2.85,4.59,4.59,0,0,0-.57-2.32,6.43,6.43,0,0,0-1.48-1.79,12.3,12.3,0,0,0-2.11-1.48c-.8-.46-1.61-.93-2.43-1.42s-1.61-1-2.4-1.59a10.53,10.53,0,0,1-2.1-1.95,9.37,9.37,0,0,1-1.5-2.55,8.87,8.87,0,0,1-.58-3.35,10.59,10.59,0,0,1,.92-4.39,10.77,10.77,0,0,1,2.6-3.58,12.21,12.21,0,0,1,4.09-2.43,15.26,15.26,0,0,1,5.34-.89,14.88,14.88,0,0,1,2.72.24,17.62,17.62,0,0,1,2.33.58,10.06,10.06,0,0,1,1.78.74,4.3,4.3,0,0,1,1,.67,1.57,1.57,0,0,1,.38.54,1.78,1.78,0,0,1,.13.7ZM1129,403.1a5.15,5.15,0,0,1,.06,1,.89.89,0,0,1-.34.61,1.83,1.83,0,0,1-.87.26c-.39,0-.93.06-1.6.06-.43,0-.8,0-1.13,0a2.55,2.55,0,0,1-.72-.15.78.78,0,0,1-.37-.28,1,1,0,0,1-.15-.45l-1.4-9.33h-16l-5,9.24a2.09,2.09,0,0,1-.34.5,1.32,1.32,0,0,1-.54.3,3.51,3.51,0,0,1-.89.17c-.37,0-.83,0-1.36,0a10.68,10.68,0,0,1-1.41-.07,1.28,1.28,0,0,1-.73-.28.62.62,0,0,1-.12-.61,4.71,4.71,0,0,1,.42-1.05l19.94-35.62a2.5,2.5,0,0,1,.44-.54,1.56,1.56,0,0,1,.63-.32,4.26,4.26,0,0,1,1-.17c.39,0,.88,0,1.45,0s1.18,0,1.58,0a4.07,4.07,0,0,1,1,.17.92.92,0,0,1,.53.33,1.7,1.7,0,0,1,.2.55L1129,403.1Zm-10-31.45h0l-10.3,19.11h13.19L1119,371.65Z"/></g><polygon class="cls-1" points="250.55 417.06 543.91 417.06 543.91 421.31 250.55 421.31 250.55 417.06"/><polygon class="cls-1" points="876.94 326.3 1170.3 326.3 1170.3 330.56 876.94 330.56 876.94 326.3"/></g></g></g></svg>