<?xml version="1.0" encoding="utf-8"?>
<!-- Generator: Adobe Illustrator 25.4.1, SVG Export Plug-In . SVG Version: 6.00 Build 0)  -->
<svg version="1.1"
	 id="svg8" xmlns:cc="http://creativecommons.org/ns#" xmlns:dc="http://purl.org/dc/elements/1.1/" xmlns:rdf="http://www.w3.org/1999/02/22-rdf-syntax-ns#" xmlns:svg="http://www.w3.org/2000/svg"
	 xmlns="http://www.w3.org/2000/svg" xmlns:xlink="http://www.w3.org/1999/xlink" x="0px" y="0px" viewBox="0 0 841.9 595.3"
	 style="enable-background:new 0 0 841.9 595.3;" xml:space="preserve">
<style type="text/css">
	.st0{fill:#00A8AB;}
</style>
<path id="path1253" class="st0" d="M671.3,271.1c-25.1,0-45.4,20.3-45.4,45.4c0,2.9,0.3,5.6,0.8,8.3h22.9c-1-2.6-1.6-5.4-1.6-8.3
	c0-12.8,10.4-23.2,23.3-23.2c12.9,0,23.3,10.4,23.3,23.2c0,12.9-10.4,23.3-23.3,23.3c-2.9,0-5.7-0.6-8.2-1.5v22.9
	c2.7,0.5,5.4,0.8,8.2,0.8c9.7,0,17.3-3.5,24.1-10.8v10.5h21.3v-45.1C716.7,291.4,696.4,271.1,671.3,271.1 M507.6,270.2
	c-25.3,0-45.8,20.5-45.8,45.8c0,2.9,0.3,5.7,0.8,8.4h23.1c-1-2.6-1.5-5.4-1.5-8.4c0-13,10.5-23.5,23.4-23.5
	c13,0,23.5,10.5,23.5,23.5c0,13-10.5,23.5-23.5,23.5c-2.9,0-5.7-0.6-8.3-1.6v23.1c2.7,0.5,5.5,0.8,8.3,0.8
	c25.3,0,45.9-20.5,45.9-45.8S532.9,270.2,507.6,270.2 M264.8,316v-45.8h-22.4V316c0,2.9,0.3,5.7,0.8,8.4h23.1
	C265.3,321.8,264.8,319,264.8,316 M308.7,270.2V316c0,13-10.5,23.5-23.5,23.5c-2.9,0-5.7-0.6-8.3-1.6v23.1c2.7,0.5,5.5,0.8,8.3,0.8
	c25.3,0,45.8-20.5,45.8-45.8v-45.8L308.7,270.2z M401,270.2c-8.5,0-16.4,2.3-23.2,6.3v-43.1h-22.9v91H379c-1-2.6-1.6-5.4-1.6-8.4
	c0-13,10.5-23.5,23.5-23.5c13,0,23.5,10.5,23.5,23.5c0,13-10.5,23.5-23.5,23.5c-2.9,0-5.7-0.6-8.3-1.6v23.1c2.7,0.5,5.4,0.8,8.3,0.8
	c25.3,0,45.8-20.5,45.8-45.8C446.8,290.7,426.3,270.2,401,270.2 M242.5,233.4h-29.1l-58.2,64.2l58.2,64.2h29.1l-58-64.2L242.5,233.4
	z M617.2,270.2h-22.5v-36.7h-22.8v128.1h22.8V293h22.5V270.2z M148,324.5h-22.8v-91.1H148V324.5z"/>
</svg>
