<?xml version="1.0" encoding="utf-8"?>
<!-- Generator: Adobe Illustrator 25.4.1, SVG Export Plug-In . SVG Version: 6.00 Build 0)  -->
<svg version="1.1" id="Layer_1" xmlns="http://www.w3.org/2000/svg" xmlns:xlink="http://www.w3.org/1999/xlink" x="0px" y="0px"
	 viewBox="0 0 841.9 595.3" style="enable-background:new 0 0 841.9 595.3;" xml:space="preserve">
<style type="text/css">
	.st0{fill-rule:evenodd;clip-rule:evenodd;fill:#E16010;}
	.st1{fill-rule:evenodd;clip-rule:evenodd;fill:#006D30;}
	.st2{enable-background:new    ;}
	.st3{fill:#006D30;}
</style>
<g id="Layer_x0020_1">
	<path class="st0" d="M592.4,192c-145.7-21.8-251.8-14-315.5,27.5c-58,37.7-78.2,68.3-65.4,100.6c15.5,38.8,70.5,59.7,167,49.8
		c127.9-33.4,206.1-74.7,236.8-126.5c-73.1,47.6-137.3,70.1-194.5,70.1C198.4,312.3,386.7,182.5,592.4,192L592.4,192z"/>
	<path class="st1" d="M629.8,193.4c-140.4-29.3-251.9-28.9-340.1,11.5c-17.9,8.2-23.1,24.4-9.7,37.6c14.4,14.1,42.4,22.7,82.2,29.3
		c39,6.4,61.6,19.8,60.9,40.4c-0.9,25.6-35.2,49.7-97.2,60c-71.2,11.9-123.2-3.5-154.6-36.2c37,14.2,76.4,15.1,118.2,2.8
		c19.8-6.7,30.1-15.2,29.6-25.4c-0.7-16.7-19.7-28-49.1-30.7c-23.3-2.1-48.9-1.8-67.2-10.4c-31.2-14.7-33.5-43-8.3-69.7
		C285.5,106,520.2,134.7,629.8,193.4L629.8,193.4z"/>
	<g class="st2">
		<path class="st3" d="M95.7,441.9l9.4-2c1.1,5.3,5.4,8,13,8c3.4,0,6.1-0.7,7.9-2c1.9-1.4,2.8-3.1,2.8-5.1c0-1.5-0.4-2.8-1.3-4.1
			c-0.9-1.3-2.6-2.2-5.4-2.9l-10.3-2.7c-3.5-0.9-6.1-2-7.8-3.1c-1.7-1.1-3-2.8-4-4.9s-1.5-4.4-1.5-6.8c0-4.8,1.8-8.7,5.4-11.6
			c3.6-2.9,8.1-4.3,13.7-4.3c4.6,0,8.7,1,12.4,3c3.6,2,6,4.9,7,8.6l-9.2,2.3c-1.4-4.1-4.7-6.1-9.9-6.1c-3,0-5.3,0.6-6.9,1.9
			c-1.6,1.3-2.4,2.9-2.4,4.8c0,3.1,2.5,5.2,7.5,6.4l9.1,2.3c5.6,1.4,9.3,3.4,11.1,6.1c1.9,2.7,2.9,5.7,2.9,9c0,5.3-2,9.4-6,12.5
			c-4,3-9.1,4.6-15.4,4.6c-5.3,0-10-1.1-14-3.3C99.7,450.1,97,446.6,95.7,441.9z"/>
		<path class="st3" d="M184.3,401.1v34.5c0,4.7-0.5,8.3-1.6,10.8c-1,2.5-3.1,4.7-6.1,6.5c-3,1.8-6.7,2.7-11,2.7
			c-4.4,0-8-0.8-10.8-2.4c-2.8-1.6-4.9-3.7-6.1-6.5c-1.2-2.7-1.9-6.3-1.9-10.5v-35.2h9.9v34.5c0,4.7,1,7.8,3,9.3
			c2,1.5,4.3,2.2,6.9,2.2c3,0,5.4-0.8,7.3-2.4c1.8-1.6,2.7-4.6,2.7-9.1v-34.5H184.3z"/>
		<path class="st3" d="M236.2,427.3v27.5h-4.3l-3-7.3c-3.1,5.4-8,8.1-14.5,8.1c-7.3,0-12.8-2.8-16.4-8.3c-3.6-5.6-5.4-12-5.4-19.3
			c0-7.7,2-14.3,6-19.7s9.7-8,16.9-8c5.4,0,9.9,1.6,13.3,4.7c3.5,3.1,5.7,7,6.6,11.7l-8.4,1.5c-1.6-6.6-5.3-9.9-11.3-9.9
			c-3.8,0-6.9,1.6-9.3,4.6c-2.4,3.1-3.6,7.9-3.6,14.3c0,13.6,4.3,20.4,12.7,20.4c3.3,0,6-1.1,8.2-3.4c2.1-2.3,3.3-5.3,3.3-9.1H216
			v-7.8H236.2z"/>
		<path class="st3" d="M256.9,454.8h-9.7v-53.7h9.7V454.8z"/>
		<path class="st3" d="M287.5,454.8H277v-45.4h-14.3v-8.3h39v8.3h-14.3L287.5,454.8L287.5,454.8z"/>
		<path class="st3" d="M332.6,454.8h-10.3v-22.7l-18.3-31.1h11.7l12.7,22.1l12.2-22.1h9.3l-17.4,31.1V454.8z"/>
		<path class="st3" d="M405.1,436.2l9,1c-0.6,5.4-2.7,9.8-6.3,13.3s-8.3,5.2-14.1,5.2c-4.9,0-8.9-1.2-12-3.7
			c-3.1-2.5-5.4-5.8-7.1-10c-1.7-4.2-2.5-8.9-2.5-14c0-8.2,1.9-14.9,5.8-20s9.2-7.7,16-7.7c5.3,0,9.8,1.6,13.3,4.9
			c3.6,3.3,5.8,8,6.7,14.1l-9,0.9c-1.7-8.1-5.3-12.2-11-12.2c-3.6,0-6.4,1.7-8.4,5.1c-2,3.4-3,8.3-3,14.7c0,6.5,1.1,11.4,3.2,14.7
			c2.1,3.3,5,5,8.6,5c2.9,0,5.3-1.1,7.3-3.3C403.7,441.9,404.8,439.3,405.1,436.2z"/>
		<path class="st3" d="M463.6,454.8h-10.2l-8.3-22.1h-13.6v22.1h-9.7v-53.7H445c6.5,0,11.3,1.4,14.3,4.4c3,2.9,4.6,6.7,4.6,11.4
			c0,6.9-3.2,11.7-9.7,14.3L463.6,454.8z M431.4,425h12c3.5,0,6.1-0.7,7.8-2.2c1.7-1.4,2.6-3.5,2.6-6.1c0-2.4-0.9-4.3-2.5-5.7
			c-1.7-1.4-4-2.2-7-2.2h-12.8L431.4,425L431.4,425z"/>
		<path class="st3" d="M508.5,454.8h-34.9v-53.7h34.6v8h-24.9v14.6h20v7.8h-20v15h25.2L508.5,454.8L508.5,454.8z"/>
		<path class="st3" d="M559,454.8h-10.4l-4.3-12.8h-20.7l-4.2,12.8h-8.3l17.9-53.7h11.9L559,454.8z M541.7,434.3l-7.9-24l-7.9,24
			H541.7z"/>
		<path class="st3" d="M579.8,454.8h-10.4v-45.4h-14.3v-8.3h39v8.3h-14.3L579.8,454.8L579.8,454.8z"/>
		<path class="st3" d="M609.7,454.8h-9.7v-53.7h9.7V454.8z"/>
		<path class="st3" d="M642.2,454.8h-9.9l-16.6-53.7H626l12.3,41.2l12.6-41.2h8.1L642.2,454.8z"/>
		<path class="st3" d="M700,454.8h-34.9v-53.7h34.6v8h-24.9v14.6h20v7.8h-20v15H700L700,454.8L700,454.8z"/>
		<path class="st3" d="M702.8,441.9l9.4-2c1.1,5.3,5.4,8,13,8c3.4,0,6.1-0.7,7.9-2c1.9-1.4,2.8-3.1,2.8-5.1c0-1.5-0.4-2.8-1.3-4.1
			s-2.6-2.2-5.4-2.9l-10.3-2.7c-3.5-0.9-6.1-2-7.8-3.1c-1.7-1.1-3-2.8-4-4.9s-1.5-4.4-1.5-6.8c0-4.8,1.8-8.7,5.4-11.6
			c3.6-2.9,8.1-4.3,13.7-4.3c4.6,0,8.7,1,12.4,3c3.6,2,6,4.9,7,8.6l-9.2,2.3c-1.4-4.1-4.7-6.1-9.9-6.1c-3,0-5.3,0.6-6.9,1.9
			c-1.6,1.3-2.4,2.9-2.4,4.8c0,3.1,2.5,5.2,7.5,6.4l9.1,2.3c5.6,1.4,9.3,3.4,11.1,6.1c1.9,2.7,2.8,5.7,2.8,9c0,5.3-2,9.4-6,12.5
			c-4,3-9.1,4.6-15.4,4.6c-5.3,0-10-1.1-14-3.3C706.7,450.1,704.1,446.6,702.8,441.9z"/>
	</g>
</g>
</svg>
