<?xml version="1.0" encoding="utf-8"?>
<!-- Generator: Adobe Illustrator 25.4.1, SVG Export Plug-In . SVG Version: 6.00 Build 0)  -->
<svg version="1.1" id="Layer_1" xmlns="http://www.w3.org/2000/svg" xmlns:xlink="http://www.w3.org/1999/xlink" x="0px" y="0px"
	 viewBox="0 0 841.9 595.3" style="enable-background:new 0 0 841.9 595.3;" xml:space="preserve">
<style type="text/css">
	.st0{fill:#AB002F;}
	.st1{fill:url(#SVGID_1_);}
	.st2{fill:url(#SVGID_00000022525695354614931490000017623218514193765005_);}
	.st3{fill:url(#SVGID_00000131338808136851001280000009617875489903882650_);}
	.st4{fill:url(#SVGID_00000143578051736649524490000012853369960701076148_);}
	.st5{fill:url(#SVGID_00000106826002334212459710000011177583733729912204_);}
	.st6{fill:url(#SVGID_00000109011303432164619210000000065398533886141832_);}
	.st7{fill:url(#SVGID_00000155844286759874316820000018073566126720057234_);}
	.st8{fill:url(#SVGID_00000118387894912902816680000017613555373804014997_);}
	.st9{fill:#2D2F34;}
	.st10{fill:url(#SVGID_00000078022430071846119570000007220959977220041892_);}
	.st11{fill:url(#SVGID_00000037690191174865691190000017842857123959167363_);}
	.st12{fill:url(#SVGID_00000023245099044231741940000006044040684399848122_);}
	.st13{fill:url(#SVGID_00000023971038300484724040000000269743992807564445_);}
</style>
<g>
	<path class="st0" d="M420.4,436c-0.1-21.1,16.9-38,38.1-38.1c20.7,0,37.7,17,38.1,38.1c-0.4,20.8-17.4,37.8-38.1,38.1
		C437.3,473.9,420.4,456.9,420.4,436z M458.5,460.1c11.4-0.2,20.9-10.9,21-24.1c-0.1-13.4-9.6-24.1-21-24.1
		c-11.9-0.1-21.4,10.7-21.1,24.1C437.1,449.2,446.6,459.9,458.5,460.1 M539.7,414v58.2h-16V414h-23.1v-13h61.2v13H539.7
		 M580.8,456.1l-6,16.1h-19l30.1-71.2h20l29.1,71.2h-19l-6-16.1H580.8L580.8,456.1z M595.9,444.1h10l-10-26.1l-10,26.1H595.9
		 M245,414v58.2h-16V414h-22.1v-13h60.2v13H245 M271.1,436c0-21.1,17-38,38.1-38.1c20.8,0,37.8,17,38.1,38.1
		c-0.3,20.8-17.3,37.8-38.1,38.1C288.1,473.9,271.1,456.9,271.1,436L271.1,436z M309.1,460.1c11.6-0.2,21-10.9,21.1-24.1
		c0-13.4-9.5-24.1-21.1-24.1c-11.8-0.1-21.3,10.7-21,24.1C287.8,449.2,297.3,459.9,309.1,460.1 M383.3,472.1h8v-27.1l28.1-44.1h-18
		L383.3,431l-17-30.1h-19l28.1,44.1v27.1L383.3,472.1"/>
	<path d="M219.8,244.3c0,67.9,88.3,123.2,196.9,123.2c108.5,0,196.9-55.3,196.9-123.2c0-67.9-88.3-123.2-196.9-123.2
		S219.8,176.4,219.8,244.3z M225.8,244.3c0-64.6,85.6-117.1,190.8-117.1c105.2,0,190.8,52.5,190.8,117.1
		c0,64.6-85.6,117.1-190.8,117.1C311.4,361.4,225.8,308.9,225.8,244.3L225.8,244.3z"/>
	<path d="M398.1,143.5c-46.1,2.8-79.5,15-85.2,31.1c-0.6,1.6-0.9,3.3-0.9,5.1c0,2.7,0.8,5.4,2.3,8c6.4,10.9,26.2,19.9,54.5,24.7
		l3,0.5l0.5-3c4.6-28.3,14.8-50.5,27.9-61l7.4-6L398.1,143.5L398.1,143.5z M319.4,184.6c-1-1.7-1.5-3.3-1.5-5c0-1,0.2-2,0.5-3.1
		c4.4-12.3,33.9-23,71.7-26.5c-10.8,12.2-19.1,31.8-23.4,55.7C342.3,201.3,324.6,193.5,319.4,184.6L319.4,184.6z M389.6,211.7
		L389,215l3.3,0.3c7.9,0.6,16.1,0.9,24.3,0.9c8.2,0,16.4-0.3,24.3-0.9l3.3-0.3l-0.6-3.3c-4.5-25.5-14.7-40.8-27-40.8
		C404.3,170.9,394.2,186.2,389.6,211.7L389.6,211.7z M416.7,177c8.5,0,16.3,12.7,20.4,32.4c-6.7,0.4-13.5,0.7-20.4,0.7
		c-6.9,0-13.7-0.3-20.4-0.7C400.4,189.6,408.2,177,416.7,177L416.7,177z M433.2,148.9c13.1,10.5,23.3,32.7,27.9,61l0.5,3l3-0.5
		c28.3-4.8,48.1-13.8,54.5-24.7c2.5-4.2,2.9-8.7,1.4-13.1c-5.7-16.1-39.2-28.3-85.2-31.1l-9.5-0.6L433.2,148.9L433.2,148.9z
		 M443.1,150.2c37.8,3.5,67.3,14.2,71.7,26.5c0.4,1,0.6,2,0.6,3.1c0,1.6-0.5,3.3-1.5,5c-5.2,8.8-22.9,16.7-47.4,21.2
		C462.2,182,453.9,162.3,443.1,150.2L443.1,150.2z M283.7,186.5C263,203.8,252,224.4,252,246.1c0,50.9,62.1,94,144.4,100.1l9.2,0.7
		l-7-6c-18-15.4-29.2-52-29.2-95.6l0.2-10.3l-2.5-0.5c-43.3-7.8-74.1-26-78.5-46.4l-1-4.9L283.7,186.5L283.7,186.5z M258.1,246.1
		c0-18.6,9.1-36.4,26.1-51.9c7.9,20.6,37.5,37.8,79.4,45.8c-0.1,2.4-0.1,5.3-0.1,5.3c0,40.3,9.6,75.2,25.4,94
		C313.7,331.3,258.1,292.1,258.1,246.1L258.1,246.1z M387.2,240.6l0,1.1c0,40.4,12.7,71,29.5,71c16.8,0,29.5-30.5,29.5-71l0-4.4
		l-3.2,0.3c-8.6,0.7-17.4,1.1-26.2,1.1c-8.8,0-17.7-0.4-26.2-1.1l-3.3-0.3L387.2,240.6L387.2,240.6z M440.1,243.9
		c-0.5,37.6-12.3,62.8-23.4,62.8c-11.1,0-23-25.1-23.4-62.8c7.7,0.6,15.5,0.9,23.4,0.9C424.6,244.8,432.4,244.4,440.1,243.9z
		 M544.7,188.2c-4.4,20.4-35.2,38.6-78.5,46.4l-2.5,0.5l0.2,10.3c0,43.5-11.2,80.1-29.2,95.6l-7,6l9.2-0.7
		c82.3-6.1,144.4-49.2,144.4-100.1c0-21.6-11-42.3-31.7-59.6l-3.8-3.2L544.7,188.2L544.7,188.2z M549.2,194.2
		c17,15.5,26.1,33.3,26.1,51.9c0,46.1-55.6,85.2-130.7,93.2c15.8-18.8,25.4-53.6,25.4-94c0,0-0.1-3-0.1-5.3
		C511.7,232,541.3,214.8,549.2,194.2L549.2,194.2z"/>
	
		<linearGradient id="SVGID_1_" gradientUnits="userSpaceOnUse" x1="-889.682" y1="-583.8991" x2="-889.682" y2="-599.4224" gradientTransform="matrix(8.8194 0 0 8.8194 8263.1494 5488.6313)">
		<stop  offset="0" style="stop-color:#F0F3F5"/>
		<stop  offset="5.600001e-02" style="stop-color:#E2E5E8"/>
		<stop  offset="0.138" style="stop-color:#D4D8DD"/>
		<stop  offset="0.242" style="stop-color:#CCD0D6"/>
		<stop  offset="0.44" style="stop-color:#CACED4"/>
		<stop  offset="0.568" style="stop-color:#B3B7BD"/>
		<stop  offset="0.835" style="stop-color:#797C83"/>
		<stop  offset="1" style="stop-color:#52545C"/>
	</linearGradient>
	<path class="st1" d="M546.9,172.6c0.3,0.8,0.5,1.5,0.7,2.3c1.1,4.5,0.9,9-0.6,13.3c19.6,16.2,31.2,36.2,31.2,57.8
		c0,54-72.4,97.8-161.6,97.8c-89.3,0-161.6-43.8-161.6-97.8c0-21.6,11.6-41.6,31.2-57.8c-1.5-4.3-1.7-8.8-0.6-13.3
		c0.2-0.9,0.5-1.7,0.9-2.5c-26.8,19.1-43.1,44.1-43.1,71.5c0,59.9,77.5,108.4,173.1,108.4c95.6,0,173.1-48.5,173.1-108.4
		C589.7,216.6,573.6,191.7,546.9,172.6L546.9,172.6z"/>
	
		<linearGradient id="SVGID_00000005252629866779755840000011800831707190620064_" gradientUnits="userSpaceOnUse" x1="-889.6813" y1="-595.727" x2="-889.6813" y2="-604.1387" gradientTransform="matrix(8.8194 0 0 8.8194 8263.1494 5488.6313)">
		<stop  offset="0" style="stop-color:#F0F3F5"/>
		<stop  offset="5.600001e-02" style="stop-color:#E2E5E8"/>
		<stop  offset="0.138" style="stop-color:#D4D8DD"/>
		<stop  offset="0.242" style="stop-color:#CCD0D6"/>
		<stop  offset="0.44" style="stop-color:#CACED4"/>
		<stop  offset="0.568" style="stop-color:#B3B7BD"/>
		<stop  offset="0.835" style="stop-color:#797C83"/>
		<stop  offset="1" style="stop-color:#52545C"/>
	</linearGradient>
	<path style="fill:url(#SVGID_00000005252629866779755840000011800831707190620064_);" d="M440.7,212.2c-7.6,0.6-15.7,0.9-24.1,0.9
		c-8.4,0-16.4-0.3-24-0.9h0l-5,3.6c9.2,0.8,18.9,1.3,29.1,1.3c10.1,0,19.9-0.5,29.1-1.3L440.7,212.2L440.7,212.2z M529.1,174.3
		c-6.1-20.1-56.2-34.8-112.5-34.8c-56.3,0-106.4,14.8-112.4,34.8c-5.3,17.4,23.5,33.5,68.9,39.9l-3.9-4.8
		c-36.7-6.3-58.6-19.6-53.5-33.8c6.1-17.2,50.5-29.7,101-29.7c50.5,0,94.9,12.5,101,29.7c5,14.2-16.8,27.5-53.5,33.8l-3.9,4.8
		C505.6,207.8,534.4,191.7,529.1,174.3L529.1,174.3z"/>
	
		<linearGradient id="SVGID_00000178174267793003949750000015273028943737397943_" gradientUnits="userSpaceOnUse" x1="-886.8889" y1="-597.273" x2="-892.1412" y2="-601.6803" gradientTransform="matrix(8.8194 0 0 8.8194 8263.1494 5488.6313)">
		<stop  offset="0" style="stop-color:#F0F3F5"/>
		<stop  offset="5.600001e-02" style="stop-color:#E2E5E8"/>
		<stop  offset="0.138" style="stop-color:#D4D8DD"/>
		<stop  offset="0.242" style="stop-color:#CCD0D6"/>
		<stop  offset="0.44" style="stop-color:#CACED4"/>
		<stop  offset="0.568" style="stop-color:#B3B7BD"/>
		<stop  offset="0.835" style="stop-color:#797C83"/>
		<stop  offset="1" style="stop-color:#52545C"/>
	</linearGradient>
	<path style="fill:url(#SVGID_00000178174267793003949750000015273028943737397943_);" d="M392.7,212.2c4.2-23.4,13.4-38.1,24-38.1
		c10.6,0,19.8,14.6,24,38.1h0.1l4.9,3.6c-4.2-31-15.6-50.7-29-50.7c-13.4,0-24.8,19.8-29,50.7L392.7,212.2L392.7,212.2L392.7,212.2z
		"/>
	
		<linearGradient id="SVGID_00000183970685250243730010000005284193583759903900_" gradientUnits="userSpaceOnUse" x1="-886.3544" y1="-589.9415" x2="-894.0132" y2="-594.3633" gradientTransform="matrix(8.8194 0 0 8.8194 8263.1494 5488.6313)">
		<stop  offset="0" style="stop-color:#F0F3F5"/>
		<stop  offset="5.600001e-02" style="stop-color:#E2E5E8"/>
		<stop  offset="0.138" style="stop-color:#D4D8DD"/>
		<stop  offset="0.242" style="stop-color:#CCD0D6"/>
		<stop  offset="0.44" style="stop-color:#CACED4"/>
		<stop  offset="0.568" style="stop-color:#B3B7BD"/>
		<stop  offset="0.835" style="stop-color:#797C83"/>
		<stop  offset="1" style="stop-color:#52545C"/>
	</linearGradient>
	<path style="fill:url(#SVGID_00000183970685250243730010000005284193583759903900_);" d="M447.2,233.4l-4,7.3c0,0.5,0,1.1,0,1.6
		c0,38.9-11.9,68.3-26.5,68.3c-14.6,0-26.5-29.5-26.5-68.3c0-0.6,0-1.2,0-1.8l-4-7.1c-0.1,3-0.2,5.9-0.2,8.9
		c0,44,13.7,77.4,30.7,77.4s30.7-33.4,30.7-77.4C447.4,239.3,447.3,236.3,447.2,233.4L447.2,233.4z"/>
	
		<linearGradient id="SVGID_00000165225395095884140180000014776507619140226432_" gradientUnits="userSpaceOnUse" x1="-892.369" y1="-608.2595" x2="-892.369" y2="-594.9175" gradientTransform="matrix(8.8194 0 0 8.8194 8263.1494 5488.6313)">
		<stop  offset="0" style="stop-color:#F0F3F5"/>
		<stop  offset="5.600001e-02" style="stop-color:#E2E5E8"/>
		<stop  offset="0.138" style="stop-color:#D4D8DD"/>
		<stop  offset="0.242" style="stop-color:#CCD0D6"/>
		<stop  offset="0.44" style="stop-color:#CACED4"/>
		<stop  offset="0.568" style="stop-color:#B3B7BD"/>
		<stop  offset="0.835" style="stop-color:#797C83"/>
		<stop  offset="1" style="stop-color:#52545C"/>
	</linearGradient>
	<path style="fill:url(#SVGID_00000165225395095884140180000014776507619140226432_);" d="M373.2,214.2c5.8-43,23.1-74.8,43.4-74.8
		c-21.9,0-40.5,28.1-47.4,70L373.2,214.2L373.2,214.2L373.2,214.2z"/>
	
		<linearGradient id="SVGID_00000088117175534828944130000010764277358600186552_" gradientUnits="userSpaceOnUse" x1="-886.9952" y1="-608.2595" x2="-886.9952" y2="-594.9175" gradientTransform="matrix(8.8194 0 0 8.8194 8263.1494 5488.6313)">
		<stop  offset="0" style="stop-color:#F0F3F5"/>
		<stop  offset="5.600001e-02" style="stop-color:#E2E5E8"/>
		<stop  offset="0.138" style="stop-color:#D4D8DD"/>
		<stop  offset="0.242" style="stop-color:#CCD0D6"/>
		<stop  offset="0.44" style="stop-color:#CACED4"/>
		<stop  offset="0.568" style="stop-color:#B3B7BD"/>
		<stop  offset="0.835" style="stop-color:#797C83"/>
		<stop  offset="1" style="stop-color:#52545C"/>
	</linearGradient>
	<path style="fill:url(#SVGID_00000088117175534828944130000010764277358600186552_);" d="M460.1,214.2L460.1,214.2l3.9-4.7
		c-6.9-41.9-25.5-70-47.4-70C437,139.4,454.3,171.2,460.1,214.2z"/>
	
		<linearGradient id="SVGID_00000112595232681353963850000018105055127010331835_" gradientUnits="userSpaceOnUse" x1="-886.8322" y1="-608.3716" x2="-886.8322" y2="-586.1053" gradientTransform="matrix(8.8194 0 0 8.8194 8263.1494 5488.6313)">
		<stop  offset="0" style="stop-color:#F0F3F5"/>
		<stop  offset="5.600001e-02" style="stop-color:#E2E5E8"/>
		<stop  offset="0.138" style="stop-color:#D4D8DD"/>
		<stop  offset="0.242" style="stop-color:#CCD0D6"/>
		<stop  offset="0.44" style="stop-color:#CACED4"/>
		<stop  offset="0.568" style="stop-color:#B3B7BD"/>
		<stop  offset="0.835" style="stop-color:#797C83"/>
		<stop  offset="1" style="stop-color:#52545C"/>
	</linearGradient>
	<path style="fill:url(#SVGID_00000112595232681353963850000018105055127010331835_);" d="M466.8,237.5l-5-5.9h0
		c0.3,4.7,0.4,9.5,0.4,14.3c0,58.8-20.4,106.5-45.5,106.5c28.2,0,50.3-44.2,50.3-106.5C466.9,243,466.9,240.3,466.8,237.5z"/>
	
		<linearGradient id="SVGID_00000134972606001850446540000014976604387929239189_" gradientUnits="userSpaceOnUse" x1="-892.5313" y1="-608.3716" x2="-892.5313" y2="-586.1053" gradientTransform="matrix(8.8194 0 0 8.8194 8263.1494 5488.6313)">
		<stop  offset="0" style="stop-color:#F0F3F5"/>
		<stop  offset="5.600001e-02" style="stop-color:#E2E5E8"/>
		<stop  offset="0.138" style="stop-color:#D4D8DD"/>
		<stop  offset="0.242" style="stop-color:#CCD0D6"/>
		<stop  offset="0.44" style="stop-color:#CACED4"/>
		<stop  offset="0.568" style="stop-color:#B3B7BD"/>
		<stop  offset="0.835" style="stop-color:#797C83"/>
		<stop  offset="1" style="stop-color:#52545C"/>
	</linearGradient>
	<path style="fill:url(#SVGID_00000134972606001850446540000014976604387929239189_);" d="M371.1,245.9c0-4.9,0.2-9.6,0.4-14.3h0
		l-5,5.9c-0.1,2.8-0.2,5.6-0.2,8.4c0,62.3,22.1,106.5,50.3,106.5C391.5,352.4,371.1,304.7,371.1,245.9L371.1,245.9z"/>
	<path class="st9" d="M547,188.2c7.5,6.2,13.8,13,18.8,20.1c-1.7-11.4-6.3-22.2-13.2-31.4c-1.9-1.5-3.8-2.9-5.7-4.3
		c0.3,0.8,0.5,1.5,0.7,2.3C548.8,179.5,548.5,183.9,547,188.2L547,188.2z M286.3,188.2c-1.5-4.3-1.7-8.8-0.6-13.3
		c0.2-0.9,0.5-1.7,0.9-2.5c-2,1.5-4,2.9-6,4.5c-6.9,9.2-11.5,20-13.2,31.4C272.4,201.2,278.8,194.4,286.3,188.2L286.3,188.2z"/>
	
		<linearGradient id="SVGID_00000183940926196387590520000015334814864472186272_" gradientUnits="userSpaceOnUse" x1="-889.6824" y1="-608.2583" x2="-889.6824" y2="-581.0128" gradientTransform="matrix(8.8194 0 0 8.8194 8263.1494 5488.6313)">
		<stop  offset="0" style="stop-color:#F0F3F5"/>
		<stop  offset="0.253" style="stop-color:#EDF0F3"/>
		<stop  offset="0.406" style="stop-color:#E5E8EA"/>
		<stop  offset="0.531" style="stop-color:#D7DADC"/>
		<stop  offset="0.642" style="stop-color:#C3C5C9"/>
		<stop  offset="0.744" style="stop-color:#A9ABAF"/>
		<stop  offset="0.839" style="stop-color:#888B90"/>
		<stop  offset="0.926" style="stop-color:#63656B"/>
		<stop  offset="1" style="stop-color:#3D3F46"/>
	</linearGradient>
	<path style="fill:url(#SVGID_00000183940926196387590520000015334814864472186272_);" d="M222.8,244.3
		c0-66.3,86.8-120.1,193.8-120.1c107,0,193.8,53.8,193.8,120.1c0,66.4-86.8,120.1-193.8,120.1C309.6,364.4,222.8,310.7,222.8,244.3
		L222.8,244.3z M416.7,352.4c95.6,0,173.1-48.5,173.1-108.4c0-59.9-77.5-108.4-173.1-108.4c-95.6,0-173.1,48.5-173.1,108.4
		C243.6,303.8,321.1,352.4,416.7,352.4z"/>
	
		<linearGradient id="SVGID_00000032627473914586748110000012184498590026936753_" gradientUnits="userSpaceOnUse" x1="-889.6811" y1="-608.2596" x2="-889.6811" y2="-581.0124" gradientTransform="matrix(8.8194 0 0 8.8194 8263.1494 5488.6313)">
		<stop  offset="0" style="stop-color:#F0F3F5"/>
		<stop  offset="0.253" style="stop-color:#EDF0F3"/>
		<stop  offset="0.406" style="stop-color:#E5E8EA"/>
		<stop  offset="0.531" style="stop-color:#D7DADC"/>
		<stop  offset="0.642" style="stop-color:#C3C5C9"/>
		<stop  offset="0.744" style="stop-color:#A9ABAF"/>
		<stop  offset="0.839" style="stop-color:#888B90"/>
		<stop  offset="0.926" style="stop-color:#63656B"/>
		<stop  offset="1" style="stop-color:#3D3F46"/>
	</linearGradient>
	<path style="fill:url(#SVGID_00000032627473914586748110000012184498590026936753_);" d="M371.1,245.9
		c0-58.2,20.4-106.5,45.5-106.5c25.1,0,45.5,48.3,45.5,106.5c0,58.8-20.4,106.5-45.5,106.5C391.5,352.4,371.1,304.7,371.1,245.9
		L371.1,245.9z M416.7,319.7c16.9,0,30.7-33.4,30.7-77.4c0-45.7-13.7-77.2-30.7-77.2c-16.9,0-30.7,31.5-30.7,77.2
		C386,286.3,399.7,319.7,416.7,319.7z"/>
	
		<linearGradient id="SVGID_00000161608895132597687940000011831842776037005967_" gradientUnits="userSpaceOnUse" x1="-889.6819" y1="-608.2568" x2="-889.6819" y2="-581.0102" gradientTransform="matrix(8.8194 0 0 8.8194 8263.1494 5488.6313)">
		<stop  offset="0" style="stop-color:#F0F3F5"/>
		<stop  offset="0.253" style="stop-color:#EDF0F3"/>
		<stop  offset="0.406" style="stop-color:#E5E8EA"/>
		<stop  offset="0.531" style="stop-color:#D7DADC"/>
		<stop  offset="0.642" style="stop-color:#C3C5C9"/>
		<stop  offset="0.744" style="stop-color:#A9ABAF"/>
		<stop  offset="0.839" style="stop-color:#888B90"/>
		<stop  offset="0.926" style="stop-color:#63656B"/>
		<stop  offset="1" style="stop-color:#3D3F46"/>
	</linearGradient>
	<path style="fill:url(#SVGID_00000161608895132597687940000011831842776037005967_);" d="M285.7,174.9c5-19.8,65.4-48.6,131-48.6
		c65.5,0,123.9,20.6,131,48.6c7.9,31.4-50.3,59.8-131,59.8C336,234.7,277.8,206.3,285.7,174.9L285.7,174.9z M416.7,139.4
		c-56.3,0-106.4,14.8-112.4,34.8c-6.8,22.5,43.2,42.8,112.4,42.8c69.3,0,119.3-20.4,112.5-42.8C523,154.2,473,139.4,416.7,139.4z"/>
	
		<linearGradient id="SVGID_00000035523392458751578480000012755116046767792016_" gradientUnits="userSpaceOnUse" x1="-889.6818" y1="-602.6075" x2="-889.6818" y2="-594.8423" gradientTransform="matrix(8.8194 0 0 8.8194 8263.1494 5488.6313)">
		<stop  offset="0" style="stop-color:#CACED4"/>
		<stop  offset="1" style="stop-color:#52545C"/>
	</linearGradient>
	<path style="fill:url(#SVGID_00000035523392458751578480000012755116046767792016_);" d="M386.1,233.3L386.1,233.3l4.2,7.4
		c8.5,0.7,17.3,1.1,26.4,1.1c9.1,0,18-0.4,26.5-1.2l4-7.3l0,0c-9.7,0.9-19.9,1.4-30.6,1.4C406.5,234.7,396.3,234.3,386.1,233.3
		L386.1,233.3z M548.3,181.7c-1,22.4-35.5,42.3-86.5,49.8l0,0l5,5.9C516.7,228.5,549.5,206.5,548.3,181.7L548.3,181.7z M285,181.7
		c-1.2,24.8,31.6,46.8,81.5,55.8l5-5.9l0,0C320.5,224.1,286.1,204.2,285,181.7L285,181.7z"/>
</g>
</svg>
