<svg id="Layer_2" data-name="Layer 2" xmlns="http://www.w3.org/2000/svg" viewBox="0 0 445.87 101.22"><defs><style>.cls-1{fill:#003993;}</style></defs><path class="cls-1" d="M73.89,277.83v11.8a39.69,39.69,0,0,1-37.39-37.4H48.3A27.93,27.93,0,0,0,73.89,277.83Z" transform="translate(-25.52 -199.39)"/><path class="cls-1" d="M78.36,252.23v25.6c-.73.06-1.48.08-2.23.08s-1.5,0-2.24-.08v-25.6Z" transform="translate(-25.52 -199.39)"/><path class="cls-1" d="M115.76,252.23a39.7,39.7,0,0,1-37.4,37.4v-11.8a27.93,27.93,0,0,0,25.6-25.6Z" transform="translate(-25.52 -199.39)"/><path class="cls-1" d="M73.89,210.37v37.4H36.5A39.69,39.69,0,0,1,73.89,210.37Z" transform="translate(-25.52 -199.39)"/><path class="cls-1" d="M115.76,247.77H78.36v-37.4A39.7,39.7,0,0,1,115.76,247.77Z" transform="translate(-25.52 -199.39)"/><path class="cls-1" d="M78.36,252.23v25.6c-.73.06-1.48.08-2.23.08s-1.5,0-2.24-.08v-25.6Z" transform="translate(-25.52 -199.39)"/><path class="cls-1" d="M78.36,199.39v11c-.74,0-1.48-.06-2.23-.06s-1.5,0-2.24.06v-11Z" transform="translate(-25.52 -199.39)"/><path class="cls-1" d="M78.36,252.23v25.6c-.73.06-1.48.08-2.23.08s-1.5,0-2.24-.08v-25.6Z" transform="translate(-25.52 -199.39)"/><path class="cls-1" d="M76.13,289.69c.75,0,1.49,0,2.23-.06v11H73.89v-11C74.63,289.67,75.38,289.69,76.13,289.69Z" transform="translate(-25.52 -199.39)"/><path class="cls-1" d="M36.43,250c0,.75,0,1.49.07,2.23h-11v-4.46h11C36.46,248.51,36.43,249.25,36.43,250Z" transform="translate(-25.52 -199.39)"/><path class="cls-1" d="M126.74,247.77v4.46h-11c0-.74.06-1.48.06-2.23s0-1.49-.06-2.23Z" transform="translate(-25.52 -199.39)"/><path class="cls-1" d="M157.44,281.11H145.36l12.28-58.68H181.5a27.5,27.5,0,0,1,10.07,1.5,12.11,12.11,0,0,1,5.86,5,15.33,15.33,0,0,1,2.16,8.27,22.53,22.53,0,0,1-1.72,8.64,20.16,20.16,0,0,1-4.22,6.73,18,18,0,0,1-5.38,3.82,28.92,28.92,0,0,1-7.77,2,90.87,90.87,0,0,1-10.65.4h-7.72Zm6.69-32.1h3.72q9.57,0,12.77-1.2a10.39,10.39,0,0,0,5-3.85,9.9,9.9,0,0,0,1.85-5.8,6,6,0,0,0-.95-3.48,5.23,5.23,0,0,0-2.64-2c-1.13-.42-3.66-.62-7.58-.62h-8.65Z" transform="translate(-25.52 -199.39)"/><path class="cls-1" d="M225.61,281.11H213.52l10.25-48.87H206.56l2-9.81h46.23l-2,9.81h-17Z" transform="translate(-25.52 -199.39)"/><path class="cls-1" d="M246.63,270H258l-2.32,11.09H244.3Z" transform="translate(-25.52 -199.39)"/><path class="cls-1" d="M317.64,281.11H305.59l4.76-22.86-16.17-35.82H307L314.31,239c1.74,4,2.9,6.84,3.49,8.61q1.47-2.61,3.44-5.53l5.56-7.76,8.29-11.89h14l-26.9,36.94Z" transform="translate(-25.52 -199.39)"/><path class="cls-1" d="M354.86,281.11H342.77l12.29-58.68h23.86a27.5,27.5,0,0,1,10.07,1.5,12.15,12.15,0,0,1,5.86,5,15.33,15.33,0,0,1,2.16,8.27,22.53,22.53,0,0,1-1.72,8.64,20.48,20.48,0,0,1-4.22,6.73,18,18,0,0,1-5.39,3.82,28.84,28.84,0,0,1-7.76,2,91.11,91.11,0,0,1-10.65.4h-7.72Zm6.69-32.1h3.72q9.57,0,12.77-1.2a10.48,10.48,0,0,0,5-3.85,9.89,9.89,0,0,0,1.84-5.8,6,6,0,0,0-.94-3.48,5.31,5.31,0,0,0-2.64-2c-1.13-.42-3.66-.62-7.58-.62h-8.65Z" transform="translate(-25.52 -199.39)"/><path class="cls-1" d="M423,281.11H410.94l10.25-48.87H404l2-9.81h46.23l-2,9.81h-17Z" transform="translate(-25.52 -199.39)"/><path class="cls-1" d="M447.05,281.11l12.28-58.68h12.05l-12.25,58.68Z" transform="translate(-25.52 -199.39)"/></svg>