<svg width="20" height="20" viewBox="0 0 20 20" fill="none" xmlns="http://www.w3.org/2000/svg">
<path d="M40.8089 30.8451C40.4448 33.6116 39.0862 36.151 36.9867 37.989C34.8872 39.827 32.1904 40.8379 29.4 40.8329C13.1892 40.8329 1.84743e-05 27.6438 1.84743e-05 11.4329C-0.00498357 8.64256 1.00592 5.94578 2.84392 3.84628C4.68193 1.74678 7.22133 0.38813 9.98785 0.0240869C10.6874 -0.0613346 11.3959 0.0817882 12.0074 0.43209C12.619 0.782393 13.1009 1.32109 13.3811 1.96775L17.6931 11.5942V11.6187C17.9077 12.1137 17.9963 12.6542 17.951 13.1918C17.9058 13.7294 17.7281 14.2474 17.4338 14.6996C17.3971 14.7547 17.3583 14.8058 17.3174 14.8568L13.0667 19.8956C14.5959 23.003 17.8462 26.2248 20.9945 27.7581L25.9639 23.5298C26.0127 23.4888 26.0638 23.4506 26.117 23.4155C26.5688 23.1141 27.0886 22.9302 27.6294 22.8803C28.1702 22.8304 28.7149 22.9161 29.2142 23.1296L29.2408 23.1419L38.8591 27.4518C39.5069 27.7311 40.0469 28.2125 40.3983 28.8242C40.7498 29.4358 40.8938 30.1448 40.8089 30.8451Z" fill="#1F336D"/>
</svg>
